<svg width="50" height="34" viewBox="0 0 50 34" fill="none" xmlns="http://www.w3.org/2000/svg">
<path fill-rule="evenodd" clip-rule="evenodd" d="M46.016 5.228C45.7849 5.46107 45.6755 5.57159 45.5253 5.72265L45.275 5.72265C44.9506 6.02001 44.6408 6.31072 44.3237 6.59288C44.0562 6.83102 43.7654 7.0451 43.5119 7.29654C43.2295 7.5768 42.9172 7.82159 42.6444 8.11863C42.3984 8.38686 42.2122 8.74534 41.8784 8.91191C41.4898 9.10477 41.3716 9.5288 41.0447 9.77201C40.7428 9.99654 40.4829 10.2774 40.2054 10.533C40.2114 10.539 40.2518 10.5792 40.3018 10.6296C39.5747 11.4995 38.8226 12.3555 38.3411 13.473C38.3117 13.4841 38.2127 13.5221 38.091 13.5687C38.1413 13.6317 38.1871 13.6893 38.2345 13.7485C37.9291 14.3287 37.6544 14.9386 37.3329 15.507C36.9368 16.2069 36.7088 16.991 36.2014 17.638C35.9466 17.9629 35.7829 18.3917 35.6915 18.7989C35.6359 19.0485 35.4746 18.9991 35.3444 19.0918C35.3953 19.1745 35.4459 19.2575 35.5142 19.3683C35.272 19.8281 35.0229 20.3016 34.7662 20.7892C34.6656 20.6974 34.6049 20.6417 34.5088 20.5539C34.2973 20.7034 33.9569 20.6958 33.869 21.2294C33.7776 20.9678 33.721 20.806 33.6515 20.6068C33.4232 20.8538 33.3334 20.9507 33.2203 21.073C33.2794 21.1702 33.335 21.2611 33.396 21.3612C33.3202 21.4951 33.2335 21.649 33.1498 21.7972C33.0793 21.7861 32.9917 21.7947 32.9765 21.7662C32.8668 21.5534 32.7713 21.333 32.6721 21.1167C32.2639 21.0416 32.3009 21.4422 32.1283 21.6155C32.0875 21.5746 32.0471 21.5337 31.9905 21.4774C31.889 21.5287 31.7809 21.5831 31.6671 21.6405C31.5219 21.4318 31.3851 21.2351 31.191 20.9558C31.1372 20.2411 31.1413 19.412 30.9864 18.614C30.9067 18.2017 30.9722 17.745 30.8087 17.3998C30.6061 16.9711 30.7999 16.542 30.6513 16.1676C30.4879 15.7547 30.5953 15.3231 30.4733 14.9443C30.3393 14.5285 30.4262 14.0975 30.3054 13.7188C30.0178 12.8172 30.0592 11.839 29.6343 10.976C29.7386 10.5919 29.4041 10.2081 29.6343 9.82395C29.3836 9.4262 29.3204 8.97145 29.2293 8.52303C29.101 7.88999 28.7684 7.31047 28.7602 6.6407C28.7576 6.45133 28.6097 6.26385 28.4772 5.95763C28.2433 6.76737 28.0422 7.46216 27.7966 8.31213C27.7368 8.36026 27.538 8.51987 27.3372 8.68074C27.4099 8.9325 27.4611 9.10952 27.5155 9.29858C27.2158 10.0763 27.1899 11.0191 26.5447 11.7015C26.8665 11.9644 26.6208 12.34 26.7097 12.6205C26.2408 13.5414 26.1912 14.5266 25.9285 15.5745C25.9162 15.5856 25.8106 15.6822 25.71 15.774C25.5681 16.1467 25.7597 16.5413 25.5188 16.9213C25.3436 17.1968 25.306 17.6152 25.3424 17.9556C25.3866 18.3711 25.2747 18.7742 25.1176 19.0779C24.9225 19.4551 25.0534 19.799 24.9519 20.1841C24.8799 20.2503 24.7743 20.3472 24.6279 20.4814C24.7072 21.3374 24.5403 22.2035 24.472 23.1007C24.3617 23.1849 24.2514 23.2688 24.1091 23.3774L24.1091 24.2629C23.9808 24.153 23.9216 24.102 23.7983 23.9959C23.841 24.439 23.6058 24.6923 23.2764 24.9282C23.1961 24.8823 23.1035 24.8294 23.0248 24.7848C22.5793 25.2192 22.1219 25.6654 21.7046 26.0727C21.4757 26.0071 21.3021 25.9571 21.078 25.8928C21.0479 25.8304 20.9917 25.7133 20.9354 25.5964L20.7334 25.5964C20.703 25.6867 20.6695 25.7861 20.6186 25.9375C20.1096 25.9752 19.7723 25.673 19.4625 25.3304C19.3945 24.9292 19.3945 24.9292 18.895 24.6559C18.9993 24.8421 19.0389 24.9127 19.1002 25.0226C19.0224 25.0425 18.9342 25.0657 18.8116 25.097C18.7825 24.9035 18.7588 24.7445 18.7291 24.5476C18.6437 24.6153 18.5868 24.66 18.5447 24.6932C18.1097 24.3778 17.6738 24.0618 17.1853 23.7074L17.1853 23.323C17.0845 23.4088 17.0254 23.4588 16.9454 23.5269C16.9112 23.4262 16.8793 23.3312 16.837 23.2058L16.4718 23.2058C16.3599 23.0937 16.279 23.0123 16.1974 22.9306C16.3536 22.7428 16.3842 22.4382 16.6972 22.3923C16.3131 22.1164 16.1468 22.4714 15.8699 22.6975C15.855 22.5265 15.8433 22.3932 15.8313 22.2532C15.4769 22.0385 15.1718 21.7526 14.6847 21.7383C14.2781 21.7266 14.0777 21.3225 13.9123 20.9175C13.8235 20.9834 13.7698 21.0233 13.6629 21.1031C13.6326 20.9485 13.606 20.8114 13.5722 20.6366C13.5314 20.6423 13.471 20.6508 13.2915 20.6756C13.0651 20.5144 12.7793 20.2189 12.4312 20.0843C11.9355 19.8927 11.7699 19.3499 11.259 19.1621C10.811 18.9975 10.4124 18.6897 10.0365 18.3473C9.52402 17.8806 8.90091 17.536 8.28349 17.1104L8.28349 17.5841C8.36568 17.6228 8.48392 17.6785 8.64515 17.7548C8.56485 17.8831 8.49435 17.9952 8.41057 18.1295C8.53861 18.3489 8.6521 18.5962 8.8146 18.8056C8.95054 18.981 8.96603 19.2895 9.28502 19.2885C9.19903 19.6156 9.44119 19.7917 9.62866 19.9836C9.57081 20.0412 9.53034 20.0818 9.49873 20.1134C10.1832 20.8184 10.6236 21.6728 11.0051 22.5658C11.2334 22.7837 11.4613 23.0016 11.687 23.2175L11.687 23.5038C11.9592 23.8851 12.196 24.2166 12.4657 24.5938C12.2906 24.6936 12.1663 24.7645 12.006 24.856C12.1467 25.1033 12.2792 25.3358 12.4018 25.5511C12.626 25.496 12.8195 25.4488 13.011 25.4017C13.3534 25.9163 13.6677 26.3884 14.0695 26.9923C13.7353 26.916 13.6471 26.7425 13.4963 26.6205C13.2873 26.9613 13.656 27.0379 13.7584 27.2241C13.6974 27.3087 13.636 27.3923 13.5052 27.5718C13.6664 27.6136 13.8172 27.6529 13.968 27.6922C13.9253 27.7362 13.8826 27.7802 13.8403 27.8242C13.9506 27.7593 14.0609 27.6944 14.1826 27.6231C14.2965 27.8524 14.3904 28.0418 14.4827 28.2286C14.4103 28.3116 14.3553 28.3746 14.2958 28.4424C14.348 28.4991 14.403 28.5596 14.4744 28.6375C14.709 28.5934 14.9585 28.5472 15.1858 28.5045C15.5939 29.1989 15.9818 29.8598 16.37 30.5208C16.3463 30.5442 16.3229 30.5679 16.2995 30.5911C16.2328 30.5429 16.1661 30.4951 16.0011 30.3763C16.0811 30.8124 16.1471 31.1722 16.224 31.5902C15.8933 31.688 15.5876 31.7783 15.1437 31.9091C15.1339 31.9214 15.0283 32.056 14.8943 32.2267C14.3322 31.3584 13.6278 30.6753 12.9832 29.9558C12.0911 28.9598 11.4098 27.8233 10.5904 26.7824C9.7371 25.6987 9.02705 24.501 8.25092 23.3556C7.80928 22.7032 7.34708 22.0642 6.91808 21.4033C6.31615 20.4754 5.69873 19.5545 5.1654 18.588C4.93051 18.1621 4.55494 17.846 4.38991 17.3555C4.24828 16.9343 3.88915 16.5857 3.62201 16.2079C2.9401 15.2429 2.28727 14.259 1.49692 13.372C0.981928 12.7947 0.542494 12.149 -9.65717e-07 11.4441L-1.0108e-06 10.4127C0.249749 10.4047 0.518784 10.3075 0.792245 10.5824C0.817536 10.3553 0.84093 10.1432 0.86306 9.9427C1.56932 9.52975 2.32995 9.4585 3.21672 9.5687C3.27457 9.64977 3.39028 9.81191 3.60272 10.1086C3.62043 10.153 3.70863 10.3731 3.81422 10.6375C4.08452 10.54 4.28748 10.4668 4.47875 10.3978C4.78825 10.627 5.11419 10.8357 5.39966 11.0897C5.64309 11.306 6.09928 11.2917 6.03953 11.8323C6.16693 11.7053 6.2074 11.6645 6.28327 11.5888C6.43691 11.9891 7.06698 11.8887 7.07457 12.4365C7.22568 12.4546 7.36131 12.4707 7.52191 12.4897C7.53835 12.561 7.55636 12.6392 7.57628 12.726C8.60121 13.1164 9.41052 13.8543 10.278 14.5396C10.3412 14.5396 10.4471 14.5073 10.5104 14.5453C10.7655 14.6992 11.1325 14.8243 11.2258 15.0542C11.3769 15.4279 11.9346 15.4079 11.8973 15.9019C12.1059 15.914 12.2994 15.9251 12.5068 15.9368C12.5419 16.0327 12.5782 16.1325 12.6228 16.2544C12.7237 16.2598 12.8343 16.2655 13.005 16.275C13.1991 16.4799 13.4249 16.718 13.692 16.9999C13.4985 17.0914 13.3844 17.1452 13.226 17.2196C13.4426 17.3647 13.6379 17.4955 13.8336 17.6263C13.9196 17.5727 14.005 17.5192 14.1412 17.4334C14.2231 17.5708 14.2759 17.7194 14.3787 17.8131C14.4684 17.8951 14.6145 17.9154 14.7337 17.9623C14.8067 17.9119 14.8949 17.8508 15.0451 17.7472C15.1295 17.8907 15.2012 18.0136 15.3226 18.22C15.3075 18.2735 15.2578 18.4496 15.2013 18.6498L15.5506 18.6498C15.7074 18.944 15.8146 19.1507 16.1936 19.2315C16.8379 19.3686 17.4025 19.7718 17.9921 20.0786C18.0825 20.1255 18.1094 20.2946 18.1647 20.4061C18.2352 20.3475 18.2937 20.299 18.2877 20.3038C18.57 20.5457 18.8656 20.7345 19.0727 20.9941C19.2836 21.2579 19.4072 21.592 19.6095 21.972C19.7979 22.049 19.8472 21.8672 19.7521 21.3992C19.9939 21.7013 20.0752 21.8026 20.1735 21.9258C20.1194 22.0341 20.0638 22.1456 19.9579 22.3577C20.1966 22.2646 20.3569 22.2023 20.5377 22.1316C20.594 22.1741 20.6594 22.2225 20.7656 22.302C20.8409 22.2213 21.0081 22.119 20.9983 22.0385C20.9502 21.6452 21.1383 21.3485 21.2929 21.06C21.1273 20.4279 21.4757 19.8737 21.5414 19.2869C21.6132 18.6409 21.7194 17.9879 21.9148 17.371C22.1013 16.7801 22.3084 16.1809 22.3634 15.5812C22.4216 14.9443 22.6504 14.3619 22.7519 13.7432C22.8553 13.1123 23.0497 12.4907 23.2631 11.8855C23.4692 11.3025 23.5296 10.6878 23.7465 10.1017C23.9668 9.506 24.1483 8.87296 24.2643 8.24816C24.3794 7.62874 24.6636 7.08152 24.8116 6.48236C24.9589 5.88542 25.135 5.2945 25.3278 4.71055C25.5279 4.10443 25.7682 3.51161 25.9816 2.9096C26.1868 2.33103 26.3803 1.74802 26.5955 1.11784C26.7476 0.965514 26.9484 0.764107 27.1466 0.56555C27.2016 0.614635 27.2645 0.670054 27.3208 0.720406C27.6897 0.747007 27.6862 0.429379 27.783 0.257106C28.1535 0.188704 28.5003 0.124419 28.8752 0.0550665C28.9068 0.0845175 28.9691 0.142151 29.0267 0.19567C29.4775 -0.207778 29.8619 0.0993996 30.1992 0.354959C30.5397 0.613368 30.8166 0.955381 31.1426 1.28188C31.2589 2.11379 31.9323 2.83581 31.6775 3.7849C31.8049 3.81118 31.8836 3.82733 32.0154 3.85425C32.0992 4.36474 32.1874 4.90467 32.2873 5.51586C32.3072 5.52188 32.4052 5.55133 32.478 5.57318C32.6107 6.05263 32.7514 6.5153 32.8627 6.98493C32.9063 7.16955 32.9591 7.41371 32.8769 7.55432C32.6683 7.91185 32.6699 8.21016 32.8769 8.56642C32.9721 8.73014 32.9329 8.97145 33.0723 9.17064L33.0723 8.49327C33.176 8.54235 33.2515 8.56452 33.25 8.57972C33.2089 9.03193 33.3805 9.449 33.5158 9.85498C33.63 10.197 33.6903 10.5814 33.5509 10.83C33.3701 11.1524 33.5064 11.4305 33.3638 11.8551C33.5411 11.7272 33.5927 11.6901 33.6448 11.6524C33.9733 12.1645 34.0647 12.3783 33.8664 12.7805C33.7077 13.1022 33.8313 13.3701 33.9037 13.6703C33.9297 13.441 33.9556 13.2118 34.0002 12.8175C34.1187 13.3761 34.2019 13.7685 34.3192 14.322C34.9337 12.9568 35.7911 11.9333 36.5268 10.8291C37.276 9.70424 37.7521 9.18109 38.6319 8.4882C38.7916 8.36216 38.8693 8.13574 39.0217 7.99576C39.286 7.75382 39.6006 7.56445 39.8541 7.31269C40.0868 7.08151 40.2332 6.75882 40.4766 6.54284C41.1212 5.97187 41.8578 5.51079 42.468 4.89359C42.5277 4.8331 42.6848 4.86857 42.8094 4.85875C42.885 4.73651 42.9368 4.55949 43.0547 4.47716C43.631 4.07466 44.2023 3.65569 44.8197 3.3254C45.3104 3.06287 45.7792 2.76076 46.2999 2.53307C46.8142 2.30791 47.3441 2.27244 47.8543 2.1274C48.3823 1.97761 48.9501 2.12234 49.5014 2.37916C48.977 2.98845 49.6412 3.56259 49.6045 4.17758C49.6269 3.88814 49.6494 3.59837 49.6718 3.30861C49.7177 3.31146 49.7638 3.31463 49.8097 3.31748L49.8097 3.88908C49.8097 4.06199 49.8068 4.2349 49.8103 4.40749C49.8147 4.60098 49.7572 4.81473 49.9734 4.94426C49.7193 5.05129 50.0177 5.25935 49.9048 5.36734C49.7028 5.56146 50.1305 5.65361 49.9579 5.85692C49.8628 5.96934 49.8343 6.15397 49.8154 6.31072C49.792 6.50453 49.8097 6.70309 49.8097 6.88138C49.6661 6.93173 49.5662 6.96688 49.4082 7.0223C49.5602 7.07486 49.6563 7.10811 49.7904 7.15403C49.7983 7.24555 49.8078 7.35354 49.8229 7.53025C49.6576 7.69619 49.4616 7.89284 49.2855 8.06955C49.2937 8.2225 49.2997 8.33303 49.3051 8.43405C49.4271 8.4787 49.5264 8.51512 49.6639 8.56515C49.5182 8.63514 49.4066 8.68866 49.295 8.74249L49.295 8.93187C49.4056 8.98412 49.5239 9.04017 49.6544 9.1016C49.4932 9.59847 49.2624 10.0615 49.2754 10.6042C49.2811 10.85 49.1018 11.1002 48.9959 11.3754C48.9928 11.3709 49.0241 11.4115 49.0718 11.4735C48.9558 11.9083 48.8356 12.359 48.6874 12.9141C48.5353 12.7269 48.4338 12.6018 48.3393 12.4856C48.3007 12.7611 48.3219 12.9435 48.4304 13.227C48.4139 13.2488 48.3997 13.2726 48.381 13.2928C48.3415 13.3346 48.3001 13.3745 48.2524 13.422C48.2944 13.4607 48.3371 13.498 48.3776 13.5376C48.3972 13.5569 48.413 13.5804 48.4316 13.6038C48.3576 13.8312 48.283 14.0601 48.185 14.361L47.4269 14.361C47.408 14.3999 47.3893 14.4389 47.3707 14.4782C47.4791 14.5491 47.5878 14.6197 47.7421 14.7207C47.8044 14.6865 47.9144 14.6257 48.124 14.5105C48.0254 14.9101 47.9451 15.2363 47.8667 15.553C47.7624 15.5761 47.6839 15.5932 47.6024 15.6112C47.897 16.0467 47.6587 16.3668 47.4073 16.6924C47.3273 16.7962 47.266 16.9226 47.2268 17.048C47.1386 17.3292 47.0697 17.6164 46.9777 17.9597C46.9676 17.9626 46.8911 17.9851 46.733 18.0319C46.7437 18.1922 46.7567 18.3844 46.7776 18.69C46.8187 18.6409 46.7494 18.6903 46.7267 18.7555C46.5417 19.2838 46.4197 19.8332 46.1908 20.3468C46.1693 20.3953 46.1867 20.4593 46.1734 20.5128C46.0862 20.8611 45.6388 21.0176 45.6739 21.4264C45.7049 21.7874 45.4198 22.0129 45.3221 22.3188C45.2171 22.6478 45.0815 22.967 44.9538 23.2881C44.9146 23.3873 44.8371 23.474 44.8147 23.5751C44.79 23.6846 44.809 23.804 44.809 23.9715C44.7028 24.052 44.5668 24.1555 44.466 24.2318L44.466 24.8177C44.1034 25.1638 43.7309 25.5081 43.772 26.0812C43.7758 26.1322 43.7663 26.2054 43.7335 26.2345C43.1761 26.7273 43.1761 27.5034 42.7797 28.0912C42.3975 28.6581 42.2049 29.3497 41.8692 29.9529C41.4247 30.7522 40.923 31.5192 40.4415 32.2976C40.3976 32.3692 40.3321 32.4401 40.2594 32.4794C39.58 32.8474 38.8965 33.2081 38.2788 33.5371C37.8549 33.4548 37.5065 33.387 37.0585 33.2999C36.9735 33.1612 36.834 32.9332 36.6984 32.7118C36.8767 32.2495 37.0272 31.7928 37.228 31.3593C37.4296 30.9236 37.6522 30.491 37.9175 30.092C38.4976 29.2179 38.8675 28.2362 39.3786 27.3293C39.6812 26.7925 39.8241 26.1642 40.2875 25.7193C40.5553 24.704 41.089 23.8059 41.511 22.8581C41.6934 22.4483 41.9394 22.0613 42.0576 21.6161C42.1661 21.2057 42.339 20.8127 42.4819 20.4114C42.9295 19.1574 43.3826 17.9059 43.8207 16.6487C44.049 15.9941 44.263 15.3335 44.4606 14.6688C44.6594 13.9993 44.7913 13.2973 45.0154 12.6509C45.4081 11.5182 45.4741 10.3268 45.8213 9.19027C46.0046 8.59017 45.9806 7.92134 46.0097 7.28165C46.0384 6.65843 46.016 6.03268 46.016 5.228" fill="#229A87"/>
</svg>
