<svg width="10" height="10" viewBox="0 0 10 10" fill="none" xmlns="http://www.w3.org/2000/svg">
<path fill-rule="evenodd" clip-rule="evenodd" d="M9.71221 0.311372C9.369 -0.0314381 8.81299 -0.0314381 8.46978 0.311372L5.13514 3.78105L1.50748 0.264485C1.28347 0.0355035 0.952659 -0.0535033 0.64401 0.0321651C0.33536 0.117834 0.0977351 0.364615 0.0237767 0.676299C-0.0501817 0.987982 0.0512346 1.31523 0.288487 1.53045L3.89271 5.00012L0.288487 8.4698C0.0512346 8.68502 -0.0501817 9.01226 0.0237767 9.32395C0.0977351 9.63563 0.33536 9.88241 0.64401 9.96808C0.952659 10.0537 1.28347 9.96474 1.50748 9.73576L5.13514 6.2192L8.46978 9.68887C8.68499 9.92614 9.01221 10.0276 9.32387 9.9536C9.63553 9.87964 9.8823 9.642 9.96796 9.33332C10.0536 9.02465 9.96462 8.69382 9.73565 8.4698L6.37757 4.95323L9.73565 1.43667C10.0004 1.10507 9.99057 0.631655 9.71221 0.311372Z" fill="#229A87"/>
</svg>
