<svg width="20" height="22" viewBox="0 0 20 22" fill="none" xmlns="http://www.w3.org/2000/svg">
<path fill-rule="evenodd" clip-rule="evenodd" d="M19.1406 19.7457L14.7151 15.2648C17.8159 12.0886 17.9104 6.99 14.9295 3.69697C11.9485 0.403934 6.9491 0.0841182 3.58666 2.97136C0.224227 5.8586 -0.308993 10.9292 2.37688 14.4756C5.06275 18.022 10.0154 18.7868 13.6135 16.2107L18.1252 20.8037C18.4083 21.0722 18.8494 21.0643 19.1229 20.7858C19.3965 20.5073 19.4043 20.0582 19.1406 19.7701V19.7457ZM1.99972 9.33342C1.99972 5.46743 5.13372 2.33342 8.99972 2.33342C12.8657 2.33342 15.9997 5.46743 15.9997 9.33342C15.9997 13.1994 12.8657 16.3334 8.99972 16.3334C5.13372 16.3334 1.99972 13.1994 1.99972 9.33342Z" fill="#229A87"/>
<path d="M19.1406 19.7457H19.6406V19.5404L19.4963 19.3943L19.1406 19.7457ZM14.7151 15.2648L14.3573 14.9156L14.0143 15.2669L14.3593 15.6162L14.7151 15.2648ZM13.6135 16.2107L13.9702 15.8604L13.6704 15.5551L13.3224 15.8042L13.6135 16.2107ZM18.1252 20.8037L17.7685 21.1541L17.7747 21.1604L17.7811 21.1665L18.1252 20.8037ZM19.1406 19.7701H18.6406V19.9643L18.7717 20.1076L19.1406 19.7701ZM19.4963 19.3943L15.0708 14.9135L14.3593 15.6162L18.7848 20.097L19.4963 19.3943ZM15.0729 15.6141C18.3584 12.2487 18.4582 6.85008 15.3001 3.36142L14.5588 4.03252C17.3626 7.12993 17.2734 11.9286 14.3573 14.9156L15.0729 15.6141ZM15.3001 3.36142C12.138 -0.131807 6.82977 -0.472456 3.26093 2.59202L3.9124 3.3507C7.06843 0.640693 11.759 0.939676 14.5588 4.03252L15.3001 3.36142ZM3.26093 2.59202C-0.303211 5.65246 -0.866136 11.0217 1.97829 14.7774L2.77547 14.1737C0.24815 10.8366 0.751665 6.06474 3.9124 3.3507L3.26093 2.59202ZM1.97829 14.7774C4.82628 18.5379 10.0842 19.3524 13.9046 16.6173L13.3224 15.8042C9.94653 18.2211 5.29923 17.506 2.77547 14.1737L1.97829 14.7774ZM13.2568 16.5611L17.7685 21.1541L18.4819 20.4533L13.9702 15.8604L13.2568 16.5611ZM17.7811 21.1665C18.2622 21.6229 19.0151 21.609 19.4796 21.1362L18.7662 20.4354C18.6836 20.5196 18.5543 20.5216 18.4693 20.441L17.7811 21.1665ZM19.4796 21.1362C19.9397 20.6678 19.9524 19.9165 19.5094 19.4325L18.7717 20.1076C18.8562 20.1999 18.8534 20.3467 18.7662 20.4354L19.4796 21.1362ZM19.6406 19.7701V19.7457H18.6406V19.7701H19.6406ZM2.49972 9.33342C2.49972 5.74357 5.40987 2.83342 8.99972 2.83342V1.83342C4.85758 1.83342 1.49972 5.19128 1.49972 9.33342H2.49972ZM8.99972 2.83342C12.5896 2.83342 15.4997 5.74357 15.4997 9.33342H16.4997C16.4997 5.19128 13.1419 1.83342 8.99972 1.83342V2.83342ZM15.4997 9.33342C15.4997 12.9233 12.5896 15.8334 8.99972 15.8334V16.8334C13.1419 16.8334 16.4997 13.4756 16.4997 9.33342H15.4997ZM8.99972 15.8334C5.40987 15.8334 2.49972 12.9233 2.49972 9.33342H1.49972C1.49972 13.4756 4.85758 16.8334 8.99972 16.8334V15.8334Z" fill="#229A87"/>
</svg>
